<svg width="10" height="9" viewBox="0 0 10 9" fill="none" xmlns="http://www.w3.org/2000/svg">
<path d="M3.852 0.756C3.244 0.955999 2.772 1.288 2.436 1.752C2.108 2.208 1.944 2.776 1.944 3.456C1.944 3.76 1.972 3.968 2.028 4.08C2.084 4.192 2.112 4.26 2.112 4.284C1.256 4.284 0.828 3.92 0.828 3.192C0.828 2.696 1.016 2.2 1.392 1.704C1.776 1.2 2.264 0.792 2.856 0.48C3.456 0.159999 4.052 -7.15256e-07 4.644 -7.15256e-07C4.94 -7.15256e-07 5.244 0.0559993 5.556 0.167999L5.28 6.492L7.92 0.167999H9.648L8.388 9H6.66L7.428 3.612L5.172 9H3.528L3.768 3.588L1.764 9H0.804L3.852 0.756Z" fill="#833DCD"/>
</svg>
